<?xml version="1.0" standalone="no"?>
<svg version="1.2" xmlns="http://www.w3.org/2000/svg" xmlns:xlink="http://www.w3.org/1999/xlink" overflow="visible" preserveAspectRatio="none" viewBox="0 0 139 142" width="139" height="142"><g transform="translate(0, 0)"><g transform="translate(0, 0) rotate(0)"><path d="M139,71c0,39.192 -31.136,71 -69.5695,71c-38.364,0 -69.4305,-31.808 -69.4305,-71c0,-39.192 31.0665,-71 69.4305,-71c38.4335,0 69.5695,31.808 69.5695,71zM125.1,71c0,-31.382 -24.881,-56.8 -55.6,-56.8c-30.719,0 -55.6,25.418 -55.6,56.8c0,31.382 24.881,56.8 55.6,56.8c30.719,0 55.6,-25.418 55.6,-56.8zM74,69.01639l33,19.84262l-5.5,9.14098l-38.5,-23.40984v-44.59016h11zM95.44606,37.28922c3.27979,0.96512 4.79506,4.37559 4.125,7.14471c-0.67006,2.76912 -3.5247,4.89369 -6.80449,3.92857c-3.27979,-0.96512 -4.79506,-4.37559 -4.125,-7.14471c0.67006,-2.76912 3.5247,-4.89369 6.80449,-3.92857zM107.46632,59.29492c3.27602,0.97784 4.77805,4.39416 4.09725,7.16066c-0.6808,2.7665 -3.54365,4.87998 -6.81968,3.90214c-3.27602,-0.97784 -4.77805,-4.39416 -4.09725,-7.16066c0.6808,-2.7665 3.54365,-4.87998 6.81968,-3.90214z" style="stroke-width: 0; stroke-linecap: butt; stroke-linejoin: miter; fill: rgb(51, 51, 51);"/></g><defs><path id="path-16561251071201428" d="M139,71c0,39.192 -31.136,71 -69.5695,71c-38.364,0 -69.4305,-31.808 -69.4305,-71c0,-39.192 31.0665,-71 69.4305,-71c38.4335,0 69.5695,31.808 69.5695,71zM125.1,71c0,-31.382 -24.881,-56.8 -55.6,-56.8c-30.719,0 -55.6,25.418 -55.6,56.8c0,31.382 24.881,56.8 55.6,56.8c30.719,0 55.6,-25.418 55.6,-56.8zM74,69.01639l33,19.84262l-5.5,9.14098l-38.5,-23.40984v-44.59016h11zM95.44606,37.28922c3.27979,0.96512 4.79506,4.37559 4.125,7.14471c-0.67006,2.76912 -3.5247,4.89369 -6.80449,3.92857c-3.27979,-0.96512 -4.79506,-4.37559 -4.125,-7.14471c0.67006,-2.76912 3.5247,-4.89369 6.80449,-3.92857zM107.46632,59.29492c3.27602,0.97784 4.77805,4.39416 4.09725,7.16066c-0.6808,2.7665 -3.54365,4.87998 -6.81968,3.90214c-3.27602,-0.97784 -4.77805,-4.39416 -4.09725,-7.16066c0.6808,-2.7665 3.54365,-4.87998 6.81968,-3.90214z"/></defs></g></svg>